<svg version="1.1" id="Layer_1" xmlns="http://www.w3.org/2000/svg" xmlns:xlink="http://www.w3.org/1999/xlink" x="0px" y="0px"
	 width="100%" viewBox="0 0 666 375" enable-background="new 0 0 666 375" xml:space="preserve">
<path fill="#000000" opacity="1.000000" stroke="none" 
	d="
M492.000000,376.000000 
	C328.039246,376.000000 164.578476,376.000000 1.058852,376.000000 
	C1.058852,251.069260 1.058852,126.138474 1.058852,1.103846 
	C222.877457,1.103846 444.754974,1.103846 666.816284,1.103846 
	C666.816284,125.999779 666.816284,250.999863 666.816284,376.000000 
	C608.805115,376.000000 550.652527,376.000000 492.000000,376.000000 
M271.998718,51.003216 
	C271.998718,51.003216 271.983612,50.968822 271.320129,51.028145 
	C270.525085,51.679047 269.730072,52.329945 268.446411,53.050896 
	C268.446411,53.050896 267.994415,53.249279 267.492401,53.152420 
	C267.321838,53.433514 267.151245,53.714611 266.408722,54.166042 
	C265.941162,54.525242 265.473633,54.884441 264.502502,55.155090 
	C264.332886,55.436054 264.163239,55.717022 263.384979,56.183918 
	C262.589172,56.868458 261.793335,57.552994 260.486664,58.134010 
	C260.311584,58.419910 260.136505,58.705811 259.365021,59.190037 
	C258.583496,59.872105 257.801971,60.554173 256.351288,61.246792 
	C249.839584,68.079353 242.629150,74.389740 237.019318,81.896309 
	C231.764420,88.927963 228.204529,97.226326 223.333786,105.181458 
	C223.213211,105.760551 223.092636,106.339645 222.306656,107.294815 
	C220.282303,115.201965 218.257950,123.109116 216.057404,131.865021 
	C215.377319,139.209518 214.366821,146.543701 214.137558,153.902252 
	C213.993454,158.527344 213.476028,164.281906 215.833466,167.614639 
	C221.337799,175.396103 228.450607,182.045334 234.971054,189.098480 
	C236.524277,190.778564 238.399750,190.890564 239.963486,189.092651 
	C245.354004,182.894882 250.673996,176.635803 256.106445,170.300247 
	C258.198914,172.512100 258.587463,172.833893 258.867615,173.232010 
	C265.023651,181.980453 270.995239,190.865906 277.387939,199.437424 
	C280.498871,203.608597 284.970093,206.299927 290.395599,204.448593 
	C293.454193,203.404907 294.255585,204.568222 295.727753,206.791763 
	C299.155334,211.968704 302.939270,216.924377 306.787018,221.805603 
	C317.020660,234.787918 333.820160,239.306656 344.996246,251.155167 
	C345.657928,251.856644 348.167023,251.582520 349.331451,250.915604 
	C355.828339,247.194427 360.632477,241.831009 363.479492,234.850266 
	C373.476318,240.020966 376.128265,238.421844 384.266479,229.665878 
	C390.016174,223.479691 394.715942,216.266464 399.480072,209.237656 
	C401.764191,205.867722 403.169861,206.639557 405.591858,208.878387 
	C409.431702,212.427811 413.528229,215.713623 417.658081,218.928650 
	C419.440704,220.316422 421.919312,221.601852 423.483521,218.930099 
	C426.779938,213.299545 429.843872,207.517365 432.714966,201.656204 
	C442.345367,181.996323 446.914368,161.494003 444.119263,139.414032 
	C442.312103,125.138634 438.743317,111.695412 432.426117,98.676674 
	C423.143402,79.546455 409.593506,64.407692 391.895111,53.143394 
	C368.829773,38.463223 343.635376,32.320309 316.191986,35.955647 
	C300.812622,37.992897 286.458069,42.657898 272.491791,50.147434 
	C272.316528,50.426411 272.141235,50.705387 271.998718,51.003216 
z"/>
<path fill="#F9F5E2" opacity="1.000000" stroke="none" 
	d="
M257.020447,61.236237 
	C257.801971,60.554173 258.583496,59.872105 259.872375,59.021252 
	C260.647522,58.709625 260.853455,58.504646 260.997528,58.237530 
	C261.793335,57.552994 262.589172,56.868458 263.895599,56.022141 
	C264.669281,55.716179 264.869232,55.510609 265.006073,55.243641 
	C265.473633,54.884441 265.941162,54.525242 266.899933,54.011646 
	C267.653961,53.715858 267.855042,53.513199 267.994415,53.249279 
	C267.994415,53.249279 268.446411,53.050896 269.048828,53.017006 
	C270.428680,52.311680 271.206146,51.640251 271.983612,50.968819 
	C271.983612,50.968822 271.998718,51.003216 272.189819,50.927670 
	C272.647217,50.713459 272.851166,50.511772 272.992828,50.247055 
	C286.458069,42.657898 300.812622,37.992897 316.191986,35.955647 
	C343.635376,32.320309 368.829773,38.463223 391.895111,53.143394 
	C409.593506,64.407692 423.143402,79.546455 432.426117,98.676674 
	C438.743317,111.695412 442.312103,125.138634 444.119263,139.414032 
	C446.914368,161.494003 442.345367,181.996323 432.714966,201.656204 
	C429.843872,207.517365 426.779938,213.299545 423.483521,218.930099 
	C421.919312,221.601852 419.440704,220.316422 417.658081,218.928650 
	C413.528229,215.713623 409.431702,212.427811 405.591858,208.878387 
	C403.169861,206.639557 401.764191,205.867722 399.480072,209.237656 
	C394.715942,216.266464 390.016174,223.479691 384.266479,229.665878 
	C376.128265,238.421844 373.476318,240.020966 363.479492,234.850266 
	C360.632477,241.831009 355.828339,247.194427 349.331451,250.915604 
	C348.167023,251.582520 345.657928,251.856644 344.996246,251.155167 
	C333.820160,239.306656 317.020660,234.787918 306.787018,221.805603 
	C302.939270,216.924377 299.155334,211.968704 295.727753,206.791763 
	C294.255585,204.568222 293.454193,203.404907 290.395599,204.448593 
	C284.970093,206.299927 280.498871,203.608597 277.387939,199.437424 
	C270.995239,190.865906 265.023651,181.980453 258.867615,173.232010 
	C258.587463,172.833893 258.198914,172.512100 256.106445,170.300247 
	C250.673996,176.635803 245.354004,182.894882 239.963486,189.092651 
	C238.399750,190.890564 236.524277,190.778564 234.971054,189.098480 
	C228.450607,182.045334 221.337799,175.396103 215.833466,167.614639 
	C213.476028,164.281906 213.993454,158.527344 214.137558,153.902252 
	C214.366821,146.543701 215.377319,139.209518 216.492996,131.376038 
	C217.790909,129.572998 219.035034,128.367096 219.443726,126.924515 
	C220.651886,122.659981 221.656815,118.326065 222.485367,113.970612 
	C222.922562,111.672295 222.827042,109.272636 222.972061,106.918739 
	C223.092636,106.339645 223.213211,105.760551 223.999130,105.077621 
	C226.432144,103.299179 228.554642,101.860168 229.867188,99.883369 
	C231.166656,97.926262 231.166199,95.054016 232.573914,93.229858 
	C238.455582,85.608124 244.734863,78.294525 250.692871,70.729752 
	C253.038559,67.751511 254.924927,64.411507 257.020447,61.236237 
z"/>
<path fill="#ECEFE7" opacity="1.000000" stroke="none" 
	d="
M256.685852,61.241516 
	C254.924927,64.411507 253.038559,67.751511 250.692871,70.729752 
	C244.734863,78.294525 238.455582,85.608124 232.573914,93.229858 
	C231.166199,95.054016 231.166656,97.926262 229.867188,99.883369 
	C228.554642,101.860168 226.432144,103.299179 224.281601,104.970512 
	C228.204529,97.226326 231.764420,88.927963 237.019318,81.896309 
	C242.629150,74.389740 249.839584,68.079353 256.685852,61.241516 
z"/>
<path fill="#ECEFE7" opacity="1.000000" stroke="none" 
	d="
M222.639343,107.106781 
	C222.827042,109.272636 222.922562,111.672295 222.485367,113.970612 
	C221.656815,118.326065 220.651886,122.659981 219.443726,126.924515 
	C219.035034,128.367096 217.790909,129.572998 216.581085,130.951660 
	C218.257950,123.109116 220.282303,115.201965 222.639343,107.106781 
z"/>
<path fill="#ECEFE7" opacity="1.000000" stroke="none" 
	d="
M271.651855,50.998482 
	C271.206146,51.640251 270.428680,52.311680 269.293121,52.981979 
	C269.730072,52.329945 270.525085,51.679047 271.651855,50.998482 
z"/>
<path fill="#ECEFE7" opacity="1.000000" stroke="none" 
	d="
M272.742310,50.197243 
	C272.851166,50.511772 272.647217,50.713459 272.173462,50.918243 
	C272.141235,50.705387 272.316528,50.426411 272.742310,50.197243 
z"/>
<path fill="#ECEFE7" opacity="1.000000" stroke="none" 
	d="
M267.743408,53.200851 
	C267.855042,53.513199 267.653961,53.715858 267.185913,53.926479 
	C267.151245,53.714611 267.321838,53.433514 267.743408,53.200851 
z"/>
<path fill="#ECEFE7" opacity="1.000000" stroke="none" 
	d="
M264.754272,55.199368 
	C264.869232,55.510609 264.669281,55.716179 264.199921,55.929176 
	C264.163239,55.717022 264.332886,55.436054 264.754272,55.199368 
z"/>
<path fill="#ECEFE7" opacity="1.000000" stroke="none" 
	d="
M260.742096,58.185768 
	C260.853455,58.504646 260.647522,58.709625 260.170593,58.922089 
	C260.136505,58.705811 260.311584,58.419910 260.742096,58.185768 
z"/>
</svg>